<svg id="Capa_1" data-name="Capa 1" xmlns="http://www.w3.org/2000/svg" viewBox="0 0 94 32"><defs><style>.cls-1{fill:#a727f4;}.cls-2{fill:#8416c4;}.cls-3{fill:#fd2d2e;}.cls-4{fill:#d61d1e;}.cls-5{fill:#2bb5fe;}.cls-6{fill:#168ac5;}.cls-7{fill:#495057;}</style></defs><title>Mesa de trabajo 1</title><ellipse class="cls-1" cx="15.62" cy="16.22" rx="7.45" ry="7.43"/><path class="cls-2" d="M18.36,18.48c-3.69,0-6.25-3.49-6.22-6.88a5.48,5.48,0,0,1,.44-2.16,7.43,7.43,0,1,0,10.47,7.34A7.4,7.4,0,0,1,18.36,18.48Z"/><path class="cls-3" d="M17.42,31l0-3.6s4.88-1.8,6.25-3.59A13.76,13.76,0,0,0,26.64,18a13.43,13.43,0,0,0-1.08-7.33,10,10,0,0,0-3.14-3.72,14.32,14.32,0,0,0-4.86-2.14l-.2-3.71a13.1,13.1,0,0,1,7.7,3.24,14.42,14.42,0,0,1,5.08,8.24,20.13,20.13,0,0,1,.12,6.2,12,12,0,0,1-2.84,6.43,16.47,16.47,0,0,1-3.92,3.51C21.53,29.77,21.52,30.1,17.42,31Z"/><path class="cls-4" d="M17.44,27.4s5.15-2.12,6.25-3.59a13.26,13.26,0,0,0,3-6.34,15.94,15.94,0,0,0-1.15-6.84s-1.47-4.07-8-5.86a10,10,0,0,1,7,2.33,11.84,11.84,0,0,1,4.16,10,10.33,10.33,0,0,1-3.39,7.21S21.65,27.81,17.44,27.4Z"/><path class="cls-5" d="M13.59,30.94l0-3.6s-4.88-1.8-6.25-3.59A13.76,13.76,0,0,1,4.37,17.9a13.43,13.43,0,0,1,1.08-7.33A10,10,0,0,1,8.59,6.85a14.32,14.32,0,0,1,4.86-2.14L13.65,1A13.1,13.1,0,0,0,6,4.24,14.42,14.42,0,0,0,.87,12.48a20.13,20.13,0,0,0-.12,6.2,12,12,0,0,0,2.84,6.43,16.47,16.47,0,0,0,3.92,3.51C9.48,29.71,9.49,30,13.59,30.94Z"/><path class="cls-6" d="M13.57,27.34s-5.15-2.12-6.25-3.59a13.26,13.26,0,0,1-3-6.34,15.94,15.94,0,0,1,1.15-6.84s1.47-4.07,8-5.86A10,10,0,0,0,6.42,7a11.84,11.84,0,0,0-4.16,10,10.3,10.3,0,0,0,3.39,7.2S9.36,27.75,13.57,27.34Z"/><path class="cls-7" d="M42.56,12.2v2.62h5.25v2.6H42.56V21.5H39.19V9.6h9.33v2.6Z"/><path class="cls-7" d="M51.7,21a4.63,4.63,0,0,1-1.86-1.7,4.64,4.64,0,0,1,1.85-6.6,5.72,5.72,0,0,1,2.68-.61,5.79,5.79,0,0,1,2.69.61,4.5,4.5,0,0,1,1.85,1.68,4.91,4.91,0,0,1,0,4.92A4.54,4.54,0,0,1,57.06,21a6.19,6.19,0,0,1-5.36,0Zm4.07-2.54a2.3,2.3,0,0,0,.54-1.62,2.25,2.25,0,0,0-.54-1.6,1.83,1.83,0,0,0-1.4-.58,1.8,1.8,0,0,0-1.39.58,2.21,2.21,0,0,0-.55,1.6A2.26,2.26,0,0,0,53,18.5a1.81,1.81,0,0,0,1.39.59A1.84,1.84,0,0,0,55.77,18.5Z"/><path class="cls-7" d="M70.76,12.29V21.5H67.68v-1a3.24,3.24,0,0,1-1.22.85,4.29,4.29,0,0,1-4.36-.76A4.27,4.27,0,0,1,61,17.44V12.29h3.23v4.62a2.35,2.35,0,0,0,.4,1.51,1.38,1.38,0,0,0,1.13.48A1.6,1.6,0,0,0,67,18.36a2.33,2.33,0,0,0,.49-1.64V12.29Z"/><path class="cls-7" d="M77.19,12.45A4.87,4.87,0,0,1,79,12.13V15c-.29,0-.53,0-.73,0a2,2,0,0,0-2.21,2.28V21.5H72.83V12.29h3.08v1.1A3,3,0,0,1,77.19,12.45Z"/><path class="cls-7" d="M88.71,10.14a4.1,4.1,0,0,1,1.84,1.53A4.18,4.18,0,0,1,91.19,14a4,4,0,0,1-2.48,3.85,6.72,6.72,0,0,1-2.8.54H83.83V21.5H80.47V9.6h5.44A6.72,6.72,0,0,1,88.71,10.14Zm-1.44,5.15A1.6,1.6,0,0,0,87.79,14a1.63,1.63,0,0,0-.52-1.29,2.34,2.34,0,0,0-1.57-.46H83.83v3.49H85.7A2.39,2.39,0,0,0,87.27,15.29Z"/></svg>