<?xml version="1.0" encoding="utf-8"?>
<!-- Generator: Adobe Illustrator 23.0.1, SVG Export Plug-In . SVG Version: 6.00 Build 0)  -->
<svg version="1.1" id="Capa_1" xmlns="http://www.w3.org/2000/svg" xmlns:xlink="http://www.w3.org/1999/xlink" x="0px" y="0px"
	 viewBox="0 0 612 792" style="enable-background:new 0 0 612 792;" xml:space="preserve">
<style type="text/css">
	.st0{fill:#8416C4;}
	.st1{fill:#FE2D2E;}
	.st2{fill:#D51C1D;}
	.st3{fill:#1689C4;}
	.st4{fill:#2AB3FB;}
	.st5{fill:#A827F4;}
	.st6{fill:#9F22E7;}
	.st7{fill:#A626F1;}
	.st8{fill:#A425EE;}
	.st9{fill:#A224EB;}
	.st10{fill:#961EDC;}
	.st11{fill:#9920E0;}
	.st12{fill:#20A0E2;}
	.st13{fill:#9C21E3;}
	.st14{fill:#1F9EDF;}
	.st15{fill:#21A2E4;}
	.st16{fill:#931DD8;}
	.st17{fill:#23A6EA;}
	.st18{fill:#28AFF6;}
	.st19{fill:#25AAEF;}
	.st20{fill:#22A4E6;}
	.st21{fill:#1E9BDB;}
	.st22{fill:#27ADF2;}
</style>
<g>
	<path class="st0" d="M349.32,371.96c-0.13,14.91-6.23,27.31-16.59,37.56c-16.18,16-35.89,20.66-57.23,14.05
		c-21.21-6.57-34.58-21.63-38.99-43.71c-5.46-27.33,8.16-50.79,28.5-62c1.41-0.78,2.66-2.04,4.51-1.7c2.28,1.32,1.86,3.37,1.21,5.26
		c-3.89,11.3-2.16,22.47,0.76,33.59c0.51,1.94,1.28,3.95,3.06,5.25c3.34,5.47,7.1,10.55,12.88,13.73c0.89,1.1,2.3,1.27,3.44,1.92
		c1.83,1.44,3.66,2.88,5.99,3.46c4.93,2.93,10.39,3.13,15.9,3.11c5.02,1.36,9.72-0.9,14.57-1.29c2.77-0.92,5.19-2.66,8.02-3.43
		c3.15-0.74,5.59-2.73,8.15-4.54C345.24,371.99,346.98,370.54,349.32,371.96z"/>
	<path class="st1" d="M305.71,280.96c-0.06-6.83,0.18-13.68-0.28-20.48c-0.32-4.6,1.87-4.9,5.3-4.33c9.72,1.6,19.21,4.06,28.01,8.53
		c37.83,19.22,62.4,49.45,66.02,91.84c5.68,66.56-36.5,113.76-92.54,125.26c-6.63,1.36-6.7,1.13-6.68-5.76
		c0.02-6.33,0.11-12.66,0.17-18.99c2.17-2.47,5.23-2.54,8.14-3c20.48-3.24,38.78-11.05,53.07-26.47
		c38.96-42.03,26.7-107.77-21.22-133.36c-9.82-5.24-20.22-8.48-31.24-9.88C311.31,283.93,307.96,283.8,305.71,280.96z"/>
	<path class="st2" d="M305.71,280.96c24.75,1.41,46.15,10.11,63.58,28.25c27.6,28.71,30.92,77.99,7.48,110.19
		c-14.36,19.73-33.44,31.53-57.21,36.01c-4.56,0.86-9.24,1.1-13.86,1.62c-0.73-3.73,2.41-3.39,4.39-3.99
		c15.5-4.69,29.92-11.43,41.58-22.94c25.71-25.39,31.4-65.05,16.56-98.58c-11.41-25.77-32.32-37.73-57.22-45.64
		C308.62,285.12,304.79,285.47,305.71,280.96z"/>
	<path class="st3" d="M278.3,280.94c0.68,2.83-0.9,3.72-3.33,4.39c-7.22,1.99-14.15,4.75-21.01,7.76
		c-27.15,11.91-40.3,34.31-45.34,62.03c-6.73,36.96,11.87,83.21,64.83,97.85c2.06,0.57,5.54-0.03,4.85,4.05
		c-0.36,0.41-0.76,0.77-1.2,1.08c-7.51,1.07-14.8-0.03-21.89-2.5c-1.59-0.55-3.13-1.03-4.79-1.12c-0.5-0.03-1.01-0.12-1.49-0.25
		c-1.92-0.35-3.73-1.03-5.46-1.92c-4.53-3.54-9.68-5.96-14.98-8.1c-2.85-2.76-5.45-5.85-9.33-7.3c-4.19-4.5-8.09-9.28-12.54-13.54
		c-1.8-4.16-4.85-7.56-6.96-11.53c-2.71-2.49-3.43-5.88-4.29-9.23c-0.49-1.91-1.31-3.71-2.52-5.32c-3.16-11.63-2.5-23.72-4.35-35.49
		c2.19-9.52,3.54-19.27,7.69-28.28c14.35-31.12,38.31-49.36,72.4-53.93C271.83,279.15,275.52,277.28,278.3,280.94z"/>
	<path class="st4" d="M278.3,280.94c-23.94,1.39-45.11,9.28-62.05,26.81c-13.22,13.69-21.23,29.97-23.88,48.85
		c-0.21,1.48-0.58,2.93-0.87,4.4c-1.1,4.91-0.19,9.89-0.5,14.82c-0.14,2.15-0.17,4.33-2.17,5.82c-4.54,3.4-7.87,2.09-9.15-3.64
		c-4.55-37.14,9.53-67.24,35.49-92.58c15.83-15.45,34.73-25.35,56.72-29.01c6.59-1.1,6.6-1.19,6.57,5.58
		C278.43,268.31,278.35,274.62,278.3,280.94z"/>
	<path class="st5" d="M349.32,371.96c-4.25,2.69-7.69,6.66-12.75,8.07c-10.7,3.94-11.46,3.42-11.51-8.13
		c-0.05-12.48-0.03-24.97,0-37.45c0.01-2.16-0.05-4.34,0.4-6.47c0.64-3.05,2.21-3.98,4.91-1.97
		C344.52,338.09,350.33,353.62,349.32,371.96z"/>
	<path class="st6" d="M312.49,385.04c-6,0.1-11.82-0.59-17-4c-2.47-1.64-2.36-4.26-2.38-6.72c-0.11-18.45-0.19-36.89,0.03-55.34
		c0.08-6.83,1.39-7.76,8.59-7.07c1.64,0.14,3.39-0.23,4.76,1.09c1.36,3.54,0.53,7.17,0.51,10.77c-0.09,16.49-0.01,32.98-0.05,49.46
		c-0.01,4.48,1.03,8.24,5.52,10.23C312.84,383.99,312.85,384.51,312.49,385.04z"/>
	<path class="st7" d="M330.36,326c-2.38-0.44-2.86,0.94-2.85,2.89c0.02,16.15,0.01,32.3,0.02,48.45c0,3.18,1.22,4.74,4.66,3.61
		c1.41-0.46,2.92-0.63,4.38-0.93c-2.32,1.89-5.05,2.68-7.95,3.02c-12.08,2.58-12.45,2.24-12.58-9.99
		c-0.17-15.63,0.33-31.27-0.21-46.9c-0.11-3.24,0.44-6.85,4.84-7.59C324.3,320.52,327.98,322.41,330.36,326z"/>
	<path class="st8" d="M320.67,318.56c-2.41,5.08-2,10.58-2.09,15.93c-0.22,12.75-0.07,25.52-0.07,38.27c0,10.59,0,10.59,10.11,10.28
		c-5.08,3.01-10.7,1.74-16.12,1.99c0-0.35,0.01-0.69,0.01-1.04c-2.48-1.07-3.28-3.13-3.31-5.64c-0.24-19.49-0.3-38.98,0.07-58.46
		c0.04-2.17-0.04-4.96,3.46-4.99C315.7,315.4,318.24,316.84,320.67,318.56z"/>
	<path class="st9" d="M312.71,314.91c-1.15,1.96-1.19,4.14-1.19,6.3c-0.02,18.98-0.01,37.96-0.02,56.94c0,2.01,0.15,3.99,1,5.86
		c-7.53-0.18-7.98-0.62-8-7.9c-0.05-20.35-0.06-40.71-0.17-61.06c-0.01-1.75,1.02-1.81,2.16-2.04
		C308.32,314.44,311.03,313,312.71,314.91z"/>
	<path class="st10" d="M286.5,376.03c-5.83-3.29-10.27-7.86-13.01-14.02c-4.28-14.17-2.11-28.65-2-43.02
		c0.02-2.31,1.57-3.54,3.01-4.9c2.16-1.26,4.54-1.74,7-1.91c2.85,2.12,3.38,5.25,3.35,8.43c-0.13,12.9,0.84,25.82-0.69,38.7
		c-0.51,4.31-0.36,8.62,1.95,12.54C286.89,373.16,287.43,374.54,286.5,376.03z"/>
	<path class="st11" d="M286.5,376.03c-5.3-4.31-5.56-10.2-4.95-16.27c1.58-15.87,1.42-31.73-0.04-47.59c2.58-0.91,5.22-1.44,7.97-1
		c1.54,1.44,2.06,3.18,2.14,5.31c0.7,18.07,0.27,36.14,0.22,54.21c-0.01,2.6-0.15,5.33-2.34,7.32
		C288.23,377.77,287.22,377.11,286.5,376.03z"/>
	<path class="st12" d="M249.5,451.98c9.17,2.57,18.58,3.79,27.97,5.1c0.91,2,0.59,4.04,0.24,6.09c-1.63,2.89-4.39,3.2-7.3,3.23
		c-8.46,0.11-16.96-0.54-25.35,0.25c-5.66,0.54-10.71,0.04-15.62-2.64c-2.98-1.58-5.67-3.53-7.98-6.01c0.58-5.38,5.33-4.8,8.33-4.68
		c5.45,0.22,10.96-0.39,16.36,0.6C247.99,454.27,248.94,453.57,249.5,451.98z"/>
	<path class="st13" d="M289.5,378.02c-2.19-2.35-0.02-4.73-0.04-7.09c-0.18-17.28,0.56-34.57-0.37-51.84
		c-0.14-2.62,0.25-5.27,0.39-7.91c4.1-0.01,8.25-0.92,12.25,0.74c-3.67,0.23-6.29,1.22-6.26,5.81c0.12,21.11,0.03,42.22,0.02,63.32
		C293.25,380.5,291.21,379.59,289.5,378.02z"/>
	<path class="st14" d="M229.45,464.02c16.01-0.29,32.06,0.86,48.03-1.03c0.72,0.85,0.49,1.88,0.51,2.85
		c0.19,8.71-0.51,9.19-9.04,9.67c-7.29,0.41-14.44-0.08-21.57-1.47C240.81,471.77,234.92,468.28,229.45,464.02z"/>
	<path class="st15" d="M249.5,451.98c1.37,0.85,2.74,1.7,4.52,2.81c-7.51,2.14-14.83,1.03-22.04,1.09c-3.7,0.03-7.2,0.43-10.51,2.14
		c-3.35-2.28-6.38-4.91-9.02-7.99c-0.02-2.63,1.47-3.74,3.91-4.1c2.44-0.36,4.91-0.56,7.32-0.29c3.11,0.35,4.91-0.85,5.82-3.71
		c5.22,2.28,10.17,5.05,15,8.05c1.57,0.92,3.42,1.16,5.01,2.02L249.5,451.98z"/>
	<path class="st16" d="M274.5,314.08c-1.45,13.68-1.28,27.39-0.58,41.09c0.12,2.35,0.21,4.59-0.43,6.84c-2.15-1.53-3-3.89-3.85-6.21
		c-4.3-11.64-5.25-23.4-1.15-35.32c0.48-1.39,0.7-2.88,1.04-4.32C271.06,315.18,272.51,313.98,274.5,314.08z"/>
	<path class="st17" d="M208.53,421.91c3.99,4.34,7.99,8.69,11.98,13.03c1.4,1.11,3.17,2.09,2.53,4.3c-0.65,2.23-2.55,2.82-4.61,2.99
		c-4.76,0.4-9.48,0.24-14.09-1.15c-4.37-4.49-7.96-9.54-10.97-15.02c0.72-2.34,2.85-3.56,4.55-2.44
		C202.24,426.42,205.22,423.76,208.53,421.91z"/>
	<path class="st18" d="M179.68,378c1.11,1.54,1.86,4.31,4.29,3.15c2.73-1.3,6.49-1.78,6.57-6.38c0.09-4.59-1.02-9.31,0.95-13.77
		c-0.62,12.23,0.97,24.21,3.97,36.03c0.16,2.43-1.12,3.91-3.4,3.91c-2.85-0.01-6.06,0.65-8.13-2.28c-0.57-0.8-0.84-1.79-1.31-2.66
		C180.78,390.14,179.84,384.14,179.68,378z"/>
	<path class="st19" d="M208.53,421.91c0.49,2.22,3.03,5.35-2.38,4.81c-0.9-0.09-2.07,0.98-2.86,1.78c-1.04,1.05-1.78,1.39-2.63-0.11
		c-1.7-3.03-4.31-3.27-7.29-2.34c-2.92-4.7-5.01-9.78-6.65-15.05c4.12-2.78,8.35-0.49,12.52-0.18c0.73,0.05,1.42,0.74,2.24,0.23
		C204.27,414.39,206.75,417.92,208.53,421.91z"/>
	<path class="st20" d="M204.34,441.07c4.35-2.29,9.03-0.7,13.54-1.14c3.42-0.33,5.02-1.6,2.64-4.99c3.51,1.67,6.39,4.14,8.99,6.99
		c0.87,2.36,5.53,2.73,4.38,5.12c-1.06,2.21-4.84,0.74-7.41,0.93c-4.73,0.34-9.66-0.85-14.02,2.04
		C209.34,447.41,206.62,444.44,204.34,441.07z"/>
	<path class="st21" d="M247.38,474.04c5.42-3.34,11.29,1.03,16.82-0.98c1.02-0.37,2.3-0.06,3.45-0.06
		c9.85-0.02,9.85-0.02,9.82-10.01c0-1.97-0.01-3.94-0.01-5.91c0.27-0.02,0.55-0.04,0.82-0.06c0.06,7.49,0.1,14.98,0.19,22.47
		c0.02,1.85-0.01,3.14-2.66,2.78C265.93,480.9,256.29,478.79,247.38,474.04z"/>
	<path class="st22" d="M201.49,411.04c-4.04,2.16-8.11,3.48-12.43,0.61c-0.64-0.42-1.55-0.45-2.33-0.66
		c-1.89-4.85-3.57-9.77-4.12-14.99c4.07,2.99,8.3,4.02,12.85,1.03C198.74,401.16,197.97,407.02,201.49,411.04z"/>
	<path class="st12" d="M249.51,451.99c-1.92-0.06-3.63-0.62-5.01-2.02C246.4,450.08,248.11,450.65,249.51,451.99z"/>
</g>
</svg>
